<svg xmlns="http://www.w3.org/2000/svg" width="40.74" height="40.74" viewBox="0 0 40.74 40.74">
  <g>
    <ellipse cx="20.37" cy="20.37" fill="none" stroke="rgb(175,179,186)" stroke-linecap="butt" stroke-linejoin="miter" stroke-width="1" rx="19.87" ry="19.87"/>
    <g>
      <rect width="3.75" height="11.87" x="12.34" y="16.13" fill="rgb(175,179,186)" rx="0" ry="0"/>
      <path fill="rgb(175,179,186)" fill-rule="evenodd" d="M31.09 21.4V28h-4.25v-6.12c0-1.61-.67-2.71-2.13-2.71-1.12 0-1.74.74-2.03 1.45-.11.26-.09.61-.09.97v6.42h-4.21s.05-10.88 0-11.87h4.21V18c.25-.82 1.59-1.98 3.74-1.98 2.66 0 4.75 1.71 4.76 5.38z"/>
      <path fill="rgb(175,179,186)" fill-rule="evenodd" d="M16.42 12.59c0 1.15-.88 2.06-2.29 2.06h-.03c-1.36 0-2.24-.91-2.24-2.06 0-1.17.91-2.06 2.29-2.06s2.23.88 2.27 2.06z"/>
    </g>
  </g>
</svg>
