<svg xmlns="http://www.w3.org/2000/svg" width="40.74" height="40.74" viewBox="0 0 40.74 40.74">
  <g>
    <ellipse cx="20.37" cy="20.37" fill="none" stroke="rgb(175,179,186)" stroke-linecap="butt" stroke-linejoin="miter" stroke-width="1" rx="19.87" ry="19.87"/>
    <path fill="rgb(175,179,186)" fill-rule="evenodd" d="M30.51 13.09c-.77.47-1.63.81-2.54 1-.73-.8-1.77-1.3-2.92-1.3-2.21 0-4 1.84-4 4.11 0 .32.03.63.1.94-3.33-.17-6.28-1.8-8.25-4.29-.34.61-.54 1.31-.54 2.07 0 1.42.71 2.68 1.78 3.42-.66-.02-1.27-.21-1.81-.51v.05c0 1.99 1.38 3.65 3.21 4.03-.34.1-.69.14-1.06.14-.26 0-.51-.02-.75-.07.51 1.63 1.99 2.82 3.74 2.85-1.37 1.1-3.1 1.76-4.97 1.76-.32 0-.64-.02-.96-.06 1.77 1.16 3.88 1.84 6.14 1.84 3.84329818 0 6.77559718-1.70234476 8.70188363-4.10017652C28.1494899 22.76951604 29.07 19.98358532 29.07 17.39c0-.18 0-.36-.01-.53.78-.58 1.46-1.3 2-2.13-.72.33-1.49.55-2.3.65"/>
  </g>
</svg>
